<svg width="1200pt" height="1200pt" viewBox="0 0 1200 1200" xmlns="http://www.w3.org/2000/svg" class="h-6 w-6 justify-centermr-6" style="fill: rgb(212, 212, 212);"><path d="m250 345v5c0 176.36 130.45 322.27 300.12 346.48-0.082032 1.1641-0.12109 2.3398-0.12109 3.5234v150h-50c-138.07 0-250 111.93-250 250v50c0 27.613 22.387 50 50 50h600c27.613 0 50-22.387 50-50v-50c0-138.07-111.93-250-250-250h-50v-150c0-1.1836-0.039062-2.3594-0.12109-3.5234 169.67-24.211 300.12-170.11 300.12-346.48v-5c114.11-23.164 200-124.05 200-245v-50c0-27.613-22.387-50-50-50h-1e3c-27.613 0-50 22.387-50 50v50c0 120.95 85.887 221.84 200 245zm100-245v250c0 138.07 111.93 250 250 250s250-111.93 250-250v-250zm-100 141.46v-141.46h-100c0 65.312 41.742 120.87 100 141.46zm700 0v-141.46h100c0 65.312-41.738 120.87-100 141.46zm-450 708.54c-82.844 0-150 67.156-150 150h500c0-82.844-67.156-150-150-150z" fill-rule="evenodd"></path></svg>