<svg width="1200pt" height="1200pt" viewBox="0 0 1200 1200" xmlns="http://www.w3.org/2000/svg" class="h-6 w-6 justify-centermr-6" style="fill: rgb(212, 212, 212);"><g><path d="m950 700c0 27.613-22.387 50-50 50s-50-22.387-50-50 22.387-50 50-50 50 22.387 50 50z"></path><path d="m150 0c-82.844 0-150 67.156-150 150v900c0 82.844 67.156 150 150 150h900c82.844 0 150-67.156 150-150v-700c0-82.844-67.156-150-150-150h-150v-50c0-82.844-67.156-150-150-150zm650 200v-50c0-27.613-22.387-50-50-50h-600c-27.613 0-50 22.387-50 50v50zm-700 100v750c0 27.613 22.387 50 50 50h900c27.613 0 50-22.387 50-50v-150h-200c-110.45 0-200-89.547-200-200s89.547-200 200-200h200v-150c0-27.613-22.387-50-50-50zm1e3 300h-200c-55.23 0-100 44.77-100 100s44.77 100 100 100h200z" fill-rule="evenodd"></path></g></svg>